<?xml version="1.0" encoding="UTF-8"?> <svg xmlns="http://www.w3.org/2000/svg" xmlns:xlink="http://www.w3.org/1999/xlink" version="1.1" x="0px" y="0px" viewBox="0 0 692.5 554" style="enable-background:new 0 0 692.5 554;" xml:space="preserve"> <style type="text/css"> .st0{fill:#E9ECFF;} .st1{fill:#F9E17A;} .st2{fill:#7ADD99;} .st3{fill:#4167F2;} .st4{opacity:0.5;fill:#415AFF;enable-background:new ;} .st5{fill:#4770F4;} .st6{opacity:0.75;} .st7{fill:#3354F2;} .st8{opacity:0.5;fill:#3354F2;enable-background:new ;} .st9{fill:none;} .st10{opacity:0.75;fill:#415AFF;enable-background:new ;} .st11{opacity:0.5;clip-path:url(#SVGID_2_);fill:#415AFF;enable-background:new ;} .st12{opacity:0.5;clip-path:url(#SVGID_4_);fill:#415AFF;enable-background:new ;} .st13{clip-path:url(#SVGID_6_);fill:#4167F2;} .st14{opacity:0.35;fill:#3354F2;enable-background:new ;} .st15{fill:#33CC86;} .st16{display:none;opacity:0.35;fill:#27B772;enable-background:new ;} .st17{opacity:0.35;fill:#7ADD99;enable-background:new ;} .st18{fill:#415AFF;} .st19{opacity:0.35;fill:#27B772;enable-background:new ;} .st20{fill:#27B772;} .st21{fill:#FFD2CF;} .st22{opacity:0.35;fill:#EFBBBB;enable-background:new ;} .st23{fill:#E8ACAC;} .st24{opacity:0.75;fill:#EFBBBB;enable-background:new ;} .st25{fill:#2E4EED;} .st26{fill:#FFD442;} .st27{opacity:0.2;fill:#FFFFFF;enable-background:new ;} .st28{opacity:0.75;fill:#35071E;enable-background:new ;} .st29{opacity:0.5;fill:#A01755;enable-background:new ;} .st30{opacity:0.35;fill:#FFFFFF;enable-background:new ;} .st31{opacity:0.5;fill:#FFFFFF;enable-background:new ;} .st32{fill:#253CAF;} .st33{fill:#153196;} .st34{fill:#EFBBBB;} .st35{fill:#FFFFFF;} .st36{fill:#FFCE43;} .st37{opacity:0.35;fill:#33CC86;enable-background:new ;} .st38{opacity:0.5;enable-background:new ;} .st39{opacity:0.75;fill:#3354F2;enable-background:new ;} .st40{fill:#4C77FC;} </style> <g id="Layer_3"> <g> <polygon class="st0" points="89.1,527.3 262.9,402 274.8,420.4 "></polygon> <polygon class="st0" points="127.3,531.1 301.1,405.8 313,424.1 "></polygon> <polygon class="st0" points="106.1,487.9 279.9,362.5 291.8,380.9 "></polygon> <polygon class="st0" points="96.7,465.5 270.5,340.1 282.4,358.5 "></polygon> <polygon class="st0" points="80.2,447.6 254.1,322.3 265.9,340.6 "></polygon> <polygon class="st0" points="62,430.9 235.8,305.6 247.7,324 "></polygon> <polygon class="st0" points="39.9,416.7 213.8,291.4 225.7,309.7 "></polygon> <polygon class="st0" points="2.2,412.6 176,287.3 187.9,305.6 "></polygon> <polygon class="st0" points="0.8,385 174.6,259.7 186.5,278.1 "></polygon> <polygon class="st0" points="8.5,351.6 182.3,226.3 194.2,244.6 "></polygon> </g> </g> <g id="cap"> <path class="st1" d="M147.5,270.8c-6.5-8.1-10.3-17.8-10.4-29.5c-0.2-26.4,18.8-47,18.6-74.4c-0.2-32.7-37-79.2-84.9-78.9 c0,0,31.8-27.4,116.7-28c70-0.5,102,7.5,200,6.8c33-0.2,35.4-25.5,35.4-25.5s111.8,4,112.2,56.2c0.4,52.3-54.3,96-16.6,127.1 c0,0-107.6,72.1-322.7,76C195.3,300.7,155.4,284.9,147.5,270.8z"></path> </g> <g id="mascot"> <g> <path class="st2" d="M498.3,222.6c0,0,4.7,46.4,28.4,75.4c12.5,15.2,46.5,26.4,83.5-0.5c28-20.4,35-50.3,35-50.3l-18-51.7 c0,0-6.2,14.7-19.3,25.4c-12.6,10.4-24,10.5-29.4,4c-16.7-14.3-20.5-38.2-20.5-38.2"></path> <g> <path class="st3" d="M616,203.2c-2.7,6.5-4.7,11-8.8,14.4c-10.1,8.3-21.2,14.9-28.7,7.3c-66.3,52.4-29.7,93.8-29.7,93.8 c82.7,4.2,98.3-69,98.3-69c13.1,6.1,49.7-29,16.6-69.3C638.3,149.2,616,203.2,616,203.2z"></path> </g> <path class="st4" d="M660,187.9c0,0-5.5,0-8.3-3.5c-2.7-3.4-5.5-10.1-2-12.9c3.5-2.8,14.2,6.5,14.2,6.5L660,187.9z"></path> <path class="st5" d="M643.2,246.7c0.3,0.7,1.7,1.8,3.9,3c0,0-15.7,73.1-98.3,69c0,0-42,0.4-7.1-12.9 C621.6,313.9,643.2,246.7,643.2,246.7z"></path> <g class="st6"> <path class="st7" d="M586.1,228.2c6.1,0.3,12.1,1.1,19.7,2.9c10.8,2.6,24.9,1.9,25.7,1.8c-10.7-0.8-20.7-14.2-20.3-19.8 c-1,1.7-2.5,3.3-4,4.5C600.1,223.2,592.6,228.2,586.1,228.2z"></path> </g> <path class="st8" d="M628.8,196.6c1.7,8,7,10.7,7,10.7c0.9,6,7.5,7.9,7.5,7.9c0,6.7,7.2,11.2,7.2,11.2c1,7.4,8.8,11.8,8.8,11.8 c-0.3-0.7-0.7-1.4-1-2.1c-0.6-2.4-0.5-4.7,0.3-6.9c-7.2-2.9-7.8-10.8-4.1-15.3c-3.2,0.2-6.4-1-8.6-3.6c-0.1-0.1-0.1-0.1-0.1-0.2 c-1.4-1.6-2-3.6-2.3-5.7C638.1,203.6,632.4,200.9,628.8,196.6z"></path> <g> <path class="st7" d="M647.3,205.7c1.2,1.7,1.4,3.3,1.9,4.6c0.1,1.4,1.3,4.4,0.1,8.4c0,1.3-1.8,6.3-7.9,11.5 c3.6-2.6,2.3-1.5,4.3-3.5c5.5-5.3,7.8-13.9,3.7-22.5L647.3,205.7z"></path> </g> <path id="XMLID_10_" class="st3" d="M678.9,184.1c3.4,1.9,7,5.2,9.2,10.4c2.7,6.4,5.9,22.3-21.7,34.5c-9.5,4.2-18.1-7.2-11.5-15.1 c2-0.1,4.2-1,5.9-2.5C673.3,200.9,678,191.5,678.9,184.1z"></path> <path class="st9" d="M678.9,184.1c3.4,1.9,7,5.2,9.2,10.4c2.7,6.4,5.9,22.3-21.7,34.5c-9.5,4.2-18.1-7.2-11.5-15.1 c2-0.1,4.2-1,5.9-2.5C673.3,200.9,678,191.5,678.9,184.1z"></path> <path class="st10" d="M654.9,213.9c-3.1,3.7-2.8,8.2-0.7,11.5c-2.3-4.5,4.8-9,11.3-16.1c5.5-5.8,10.3-14.6,11.4-17.8l-0.1-0.1 c-2.4,5.9-7.3,12.6-16,20C659,212.9,656.9,213.8,654.9,213.9z"></path> <path class="st9" d="M678.9,184.1c3.4,1.9,7,5.2,9.2,10.4c2.7,6.4,5.9,22.3-21.7,34.5c-9.5,4.2-18.1-7.2-11.5-15.1 c2-0.1,4.2-1,5.9-2.5C673.3,200.9,678,191.5,678.9,184.1z"></path> <path class="st5" d="M682.8,202.4c-1.8,5.4-4,10.5-1.3,13.8c0.9,1,2.7,0.2,4.5-1.6l0,0c5.7-8.3,3.8-16.1,2.1-20.1 c-0.6-1.4-1.2-2.6-2-3.7C685.1,191.6,684.5,197.2,682.8,202.4z"></path> <path id="XMLID_9_" class="st3" d="M666.3,229.1c13.8-6.1,19.8-13.2,22-19.4c1.2,1.7,2.3,3.7,3,6.1c1.3,4.4,3.6,19.2-20.6,26.8 c-7.7,2.4-15.1-5.2-11.9-13.2C661.3,230.1,664,230.1,666.3,229.1z"></path> <path class="st9" d="M666.3,229.1c13.8-6.1,19.8-13.2,22-19.4c1.2,1.7,2.3,3.7,3,6.1c1.3,4.4,3.6,19.2-20.6,26.8 c-7.7,2.4-15.1-5.2-11.9-13.2C661.3,230.1,664,230.1,666.3,229.1z"></path> <path class="st9" d="M666.3,229.1c13.8-6.1,19.8-13.2,22-19.4c1.2,1.7,2.3,3.7,3,6.1c1.3,4.4,3.6,19.2-20.6,26.8 c-7.7,2.4-15.1-5.2-11.9-13.2C661.3,230.1,664,230.1,666.3,229.1z"></path> <path id="XMLID_8_" class="st3" d="M646.1,210.2c0.1,0.1,0.1,0.1,0.1,0.2c3.7,4.3,10.2,4.9,14.5,1.1c26.4-22.5,17.8-39,12.9-44.9 c-8.7-10.5-20.2,0.4-24,4.9l6.5,6.8c0,0-0.2,0.1-0.5,0.2c0.3,0,0.9-0.2,2.1,1.2c0.6,0.7,1.4,1.6-0.4,4.9 c-1.7,3.4-5.1,7.2-9.9,11.2C643.1,199.5,642.5,205.9,646.1,210.2z"></path> <path class="st9" d="M646.1,210.2c0.1,0.1,0.1,0.1,0.1,0.2c3.7,4.3,10.2,4.9,14.5,1.1c26.4-22.5,17.8-39,12.9-44.9 c-8.7-10.5-20.2,0.4-24,4.9l6.5,6.8c0,0-0.2,0.1-0.5,0.2c0.3,0,0.9-0.2,2.1,1.2c0.6,0.7,1.4,1.6-0.4,4.9 c-1.7,3.4-5.1,7.2-9.9,11.2C643.1,199.5,642.5,205.9,646.1,210.2z"></path> <path class="st10" d="M643.8,204.5c0.1,2,1,4,2.3,5.7c-0.1-0.3-1.3-4.4,3.2-4.6c5-0.1,9.2-4.2,9.7-4.7 C654.9,204.2,649.3,205.3,643.8,204.5z"></path> <g> <g> <g> <g> <g> <g> <g> <g> <defs> <path id="SVGID_1_" d="M646.1,210.2c0.1,0.1,0.1,0.1,0.1,0.2c3.7,4.3,10.2,4.9,14.5,1.1c26.4-22.5,17.8-39,12.9-44.9 c-8.7-10.5-20.2,0.4-24,4.9l6.5,6.8c0,0-0.2,0.1-0.5,0.2c0.3,0,0.9-0.2,2.1,1.2c0.6,0.7,1.4,1.6-0.4,4.9 c-1.7,3.4-5.1,7.2-9.9,11.2C643.1,199.5,642.5,205.9,646.1,210.2z"></path> </defs> <clipPath id="SVGID_2_"> <use xlink:href="#SVGID_1_" style="overflow:visible;"></use> </clipPath> <path class="st11" d="M674.4,167.5c-5.8-9-16.3-1.9-17.8,12.8l-5,1.7l-6.9-14c0,0,27.4-15.6,27.2-15.4 c-0.1,0.2,4.6,13,4.6,13L674.4,167.5z"></path> </g> </g> </g> </g> </g> </g> </g> </g> <path class="st9" d="M646.1,210.2c0.1,0.1,0.1,0.1,0.1,0.2c3.7,4.3,10.2,4.9,14.5,1.1c26.4-22.5,17.8-39,12.9-44.9 c-8.7-10.5-20.2,0.4-24,4.9l6.5,6.8c0,0-0.2,0.1-0.5,0.2c0.3,0,0.9-0.2,2.1,1.2c0.6,0.7,1.4,1.6-0.4,4.9 c-1.7,3.4-5.1,7.2-9.9,11.2C643.1,199.5,642.5,205.9,646.1,210.2z"></path> <path class="st5" d="M671.9,181.7c-1.7,5.7-4.1,11.3-1.3,14.8c1,1,2.8,0.2,4.6-1.8c6.4-11.6,3.4-20.4,0.1-25.6 C674.3,169,673.8,175.7,671.9,181.7z"></path> <path id="XMLID_7_" class="st3" d="M635.6,204.5c0.1,0.1,0.1,0.1,0.2,0.1c4.5,3.6,10.9,3,14.6-1.5c22-26.8,10.7-41.5,4.8-46.5 c-17.2-9.4-25.9,16.7-29.9,25.1l13.7-7.1c0,0-0.1,0.2-0.5,0.3c0.3-0.1,1.9-3.7,3.4-2.5c0.7,0.6,1.6,1.3,0.5,4.9 c-1.2,3.6-3.9,8-7.7,12.8C630.8,194.5,631.3,200.9,635.6,204.5z"></path> <g> <g> <g> <g> <g> <g> <g> <g> <defs> <path id="SVGID_3_" d="M635.6,204.5c0.1,0.1,0.1,0.1,0.2,0.1c4.5,3.6,10.9,3,14.6-1.5c22-26.8,10.7-41.5,4.8-46.5 c-10.4-8.8-25.9,16.7-29.9,25.1l13.7-7.1c0,0-0.1,0.2-0.5,0.3c0.3-0.1,1.9-3.7,3.4-2.5c0.7,0.6,1.6,1.3,0.5,4.9 c-1.2,3.6-3.9,8-7.7,12.8C630.8,194.5,631.3,200.9,635.6,204.5z"></path> </defs> <clipPath id="SVGID_4_"> <use xlink:href="#SVGID_3_" style="overflow:visible;"></use> </clipPath> <path class="st12" d="M616.3,194.2c8,6.9,23.3,7.2,30.4-1.2c0,0-3.6,5.3-8.8,6.4c-4.6,1,15,2,15,2l-11,13.6l-11.9-8.7 L616.3,194.2z"></path> </g> </g> </g> </g> </g> </g> </g> </g> <path class="st9" d="M635.6,204.5c0.1,0.1,0.1,0.1,0.2,0.1c4.5,3.6,10.9,3,14.6-1.5c22-26.8,10.7-41.5,4.8-46.5 c-17.7-9.4-25.9,16.7-29.9,25.1l10.5-5c0,0,2.7,0.2,2.3,0.3c0.3-0.1,2.2-6,3.6-4.8c0.7,0.6,1.6,1.3,0.5,4.9 c-1.2,3.6-3.9,8-7.7,12.8C630.8,194.5,631.3,200.9,635.6,204.5z"></path> <path class="st4" d="M626.4,179.1l6.1-1.2l3.8-0.7l4.2-3.9c0-0.3,0-0.6,0.1-0.9c0.3-13.6,7.3-18,15.3-14.9l0.1-0.2 c-0.3-0.3-0.5-0.4-0.8-0.7C639.5,148.1,630.9,168.9,626.4,179.1z"></path> <path class="st9" d="M641.6,172.5c0.7,0.6,1.6,1.3,0.5,4.9s-3.9,8-7.7,12.8c-3.5,4.4-3,10.7,1.4,14.4c0.1,0.1,0.1,0.1,0.2,0.1 c4.5,3.6,10.9,3,14.6-1.5c22-26.8,10.7-41.5,4.8-46.5c-17.9-9.2-24.9,15.9-29.9,25.1l14.1-4.2"></path> <path class="st5" d="M656,171.9c-0.7,6-2.1,11.8,1.3,14.7c1.2,1,3-0.4,4.5-2.9c3.8-12-0.2-20-4.1-24.5l0,0 c-0.1-0.1-0.1-0.1-0.2-0.1C655.9,157.7,656.7,164.9,656,171.9z"></path> <g> <g> <path id="XMLID_4_" class="st3" d="M628.9,196.6c6.7,8.2,21.7,11.2,30.2,4.2c8.2-6.8,8.5-12.5,4.9-16.8c-4-4.9-11.1-4-18-4.8 c-7.6-1-13.7-5.9-19.8-0.8c-11.7,9.6-14.1,18.7-15,34.4c-0.3,5.7,12.1,20.7,20.4,19.9"></path> </g> <g> <g> <g> <g> <g> <g> <g> <g> <g> <defs> <path id="SVGID_5_" d="M628.9,196.6c6.7,8.2,21.7,11.2,30.2,4.2c8.2-6.8,8.5-12.5,4.9-16.8c-4-4.9-11.1-4-18-4.8 c-7.6-1-13.7-5.9-19.8-0.8c-11.7,9.6-14.1,18.7-15,34.4c-0.3,5.7,12.1,20.7,20.4,19.9"></path> </defs> <clipPath id="SVGID_6_"> <use xlink:href="#SVGID_5_" style="overflow:visible;"></use> </clipPath> <path class="st13" d="M662.1,180.5c-1.1-1.5-1.7,4.1-3.7,8.9c-1.7,4.2-3.8,8-2,11.5 C658.4,204.3,673.6,194.5,662.1,180.5z"></path> </g> </g> </g> </g> </g> </g> </g> </g> </g> </g> <path class="st10" d="M660.9,240c-2.5-2.6-3.7-6.5-2.1-10.7c2.5,0.8,5.2,0.8,7.5-0.3c7.2-3.2,12.2-6.6,15.7-10l0.1,0 c-2.6,2.7-9.2,7.5-15.4,11C661.8,232.8,658.5,236.9,660.9,240z"></path> <path class="st5" d="M690.6,213.6c0.3,0.8,0.6,1.4,0.8,2.2c1,3.4,2.5,12.7-7.3,20.3c-0.6,0.1-1.2-0.1-1.5-0.6 c-1.8-3.3,1-7.6,3.4-12.1C688.1,219.2,689.6,214.4,690.6,213.6z"></path> <path class="st3" d="M638.9,174.6l-0.4,0.2c-0.1,0.1-0.1,0.2-0.1,0.2C638.7,174.8,638.9,174.7,638.9,174.6z"></path> </g> <path class="st3" d="M235.3,400.8c25,27.1,82.8,70.2,102.1,80.3c0,0,17,0.5,24.6-3.8c0,0-38.7-82.8-54.8-104.5L235.3,400.8z"></path> <path class="st14" d="M235.3,400.8c25,27.1,82.8,70.2,102.1,80.3c0,0,17,0.5,24.6-3.8c0,0-38.7-82.8-54.8-104.5L235.3,400.8z"></path> <path class="st15" d="M557.9,235.4c5.8,48.4-44.4,146.9-113.4,191.7c-1.1,0.7-2.2,1.3-3.5,2c-49.9,25.4-132.1-7.8-192-80.5 c-61.5-74.5-77.7-164.2-39.6-207.1l0,0c36.4-38.8,70-47,123.7-61c15.7-4,45.6-13.5,60.4-7.2L557.9,235.4z"></path> <path class="st16" d="M441.2,224.4c11.8-6.1,27.2-2.3,39.3,0.9c-6.6-13.6,9.4-24.7,21.1-18.6c-10.4,1.3-17.1,10.7-13,20.7 c4.9,1.2,8.6,1.8,10.7,0.7c0,0-6.7,20.3-38,36.4c-31.2,16-59.2,7.4-67.8-9.4C412.5,252.4,415.2,237.8,441.2,224.4z"></path> <path class="st17" d="M512.1,187l46,48.2c5.8,48.4-44.4,146.9-113.4,191.7c-1.1,0.7-2.2,1.3-3.5,2c-36.5,18.6-90.2,5.9-139.9-30.7 c14.1,0.4,52.2-3.7,118.4-46.7c64.1-41.7,82.6-138,82.6-138L512.1,187z"></path> <path class="st7" d="M309.8,458c20.6,3.1,33.9,24.6,33.9,24.6c-21.3-0.6-36.6,6.3-46.9,9.4c8.4,12.9,16.3,58.6,11.9,61.4 c-4.2,2.7-39.3-56.8-27.9-73.9C289.3,469.3,296.5,469.1,309.8,458z"></path> <path class="st18" d="M193.2,172.5c-6.6,10.5-12.1,21.4-16.3,32.9c-9.6,106.4,114.2,244.5,213.6,238.5c7-1.8,13.9-4.1,20.7-6.7 c-49,3.9-112.9-29.1-161.9-88.6C200.1,288.9,179.9,219.8,193.2,172.5z"></path> <path class="st3" d="M176.9,205.3c-19.5,51.9-14.9,112.1,17.5,162c43.3,66.7,123.1,95.2,196.1,76.5 C291.2,449.9,167.4,312.4,176.9,205.3z"></path> <path class="st19" d="M377.3,202.5c33.3-21.6,74.3-11,107.4,11.2l25.4-34l-11.6-3.3L393.8,73.2c-14.8-6.4-44.7,3.2-60.4,7.2 c-55.6,14.3-78.9,21.6-107.6,45.6c-5.7,4.8-11.2,9.9-16.2,15.3c-39.7,44.9-20.8,140.8,49.6,218.7c-37.5-65-9.8-106.2,35.7-135.8 C338.6,196,377.3,202.5,377.3,202.5z"></path> <path class="st20" d="M251.3,114.5l23.4,57.5l-50,32c-8-12.5-22-21.8-33.6-19.4l-0.4-0.7c2.6-16.7,9-31.3,19-42.7 c5-5.4,10.5-10.5,16.2-15.3c5.2-4.3,10.6-8.4,16.3-12.3L251.3,114.5z"></path> <path class="st4" d="M176.9,205.3c-19.5,51.9-14.9,112.1,17.5,162c4,6.2,8.5,12.1,13.1,17.7c-6.2-24-3.8-36.7,10.9-49.2 C188,291.2,173.4,243.4,176.9,205.3z"></path> <path class="st3" d="M171.2,281.6c-21.5,14-29.8,42.8-45.3,59.3c-16.1,17.2-33.4,24.8-26.1,35.9c7.1,10.9,23.6-1.1,44.7-7.1 s46.6-5.8,53.4-10.3"></path> <path class="st4" d="M171.2,281.6c-21.5,14-29.8,42.8-45.3,59.3c-16.1,17.2-33.4,24.8-26.1,35.9c7.1,10.9,23.6-1.1,44.7-7.1 s46.6-5.8,53.4-10.3"></path> <path class="st7" d="M99,364.8c5.8-12.5,29.1-25.2,34-47.9c0,0,24.9,23.2,33.2,54.7c-26-0.9-44.6,11.6-56.7,11 c-5.1,8.1-18.8,16.4-34.4,23.8c-22.6,10.8-43.3,8.2-47,0.5C21.4,392.9,71.6,361.4,99,364.8z"></path> <path class="st3" d="M178.8,330.1c-9.8,9-16.1,18.4-11,24c5.2,5.6,17.2,2.8,27-6.2c9.8-9,13.5-20.8,8.5-26.4S188.5,321,178.8,330.1 z"></path> <path class="st18" d="M76,385.6c-12.9,6.8-22.9,11.9-20.4,16.7c2.5,4.8,15,3.1,27.8-3.6c12.9-6.8,21.2-16.3,18.5-21 C99.6,372.8,88.9,378.8,76,385.6z"></path> <path class="st20" d="M376.3,87.7c2.3,4.7,2,10.3,1.3,14.2c-0.3,1.7,0,3.5,0.7,5.1c17.5,39.7,69.6,85.1,106.6,106.7l7.7-10.4 c-0.8-0.9-1.6-1.9-2.3-3c0,0-25.6-10.4-49-46.4c-17.7-27.2-26.4-47.4-29.4-62.8c-0.1-0.1-17.9-17.7-17.9-17.7 c-6.6-0.5-11.5,0.7-14.9,3C375.4,78.8,374.4,83.7,376.3,87.7z"></path> <path class="st21" d="M574.5,218.1c14.8-64.7,11-124.7-7.5-153.2c-24.5-37.6-74.8-48.2-112.3-23.8c-16.2,10.5-33.7,18.6-51.7,25.2 c-31.1,13.2-8.2,71.6,46.6,120.7C504.9,236.5,566.5,252.9,574.5,218.1L574.5,218.1z"></path> <path class="st22" d="M394.8,72c-24.2,27.3,28.2,105.9,96.9,146c22.3,11,38.2-5,38.2-5c-10.8,7-25.2,4-32.2-6.8 c0,0-23.8-9.6-45.4-42.9c-44.1-67.9-28.1-89.2-8.5-101.9l-2.5-12.1C410.6,66.1,402,63.7,394.8,72z"></path> <path class="st23" d="M497.7,206c0.1,0.5,0.8,2.3,0.8,2.3c0.5,0.8,2.6,6.2,9.7,9c4.7,2.2,12.4,2.2,16.9-0.7 c1.5-0.7,3.2-2.1,4.6-3.9C517.5,215.9,507.3,213.6,497.7,206z"></path> <path class="st24" d="M420.6,59.3c10.5-4.2,23.1,2,23.1,2l-2.5-12.1C434.5,52.8,427.6,56.1,420.6,59.3z"></path> <path class="st25" d="M177.9,202.6c4.1-10.4,9.2-20.5,15.3-30.1c-13.4,47.3,6.9,116.5,56,176.1c49,59.5,113,92.6,161.9,88.6 c-3.9,1.5-7.9,2.9-11.9,4.2C300.1,434.8,186.2,312.1,177.9,202.6z"></path> <path class="st1" d="M251.2,395c18.8,25.7,47.3,37.5,47.3,37.5c19.8-3.7,38.6-14.9,38.6-14.9c-11.1-4.7-29.8-18.2-43.4-36.5 C282.6,385.8,263.7,393.1,251.2,395z"></path> <path class="st26" d="M249.9,387.5l1.3,7.5c12.4-1.9,31.8-9.4,42.7-14c12.9,17.5,31.2,31.3,43.4,36.5l-1.3-7.5 c0,0-24-10.3-43.4-36.5C292.5,373.6,263.3,385.9,249.9,387.5z"></path> <path class="st27" d="M315.2,403.4l-2.4,25.3c3.1-1.1,6.2-2.2,8.9-3.4l1.5-15.9C320.6,407.7,318,405.7,315.2,403.4z"></path> <path class="st27" d="M303.5,392.5l-3.8,39.7c1.4-0.3,2.9-0.6,4.3-1l3.3-34.9C306.1,395.3,304.8,394,303.5,392.5z"></path> <g> <path class="st21" d="M452.4,56.6c-0.7-8.6-8.1-15-16.7-14.2c-8.6,0.7-15,8.1-14.2,16.7c0.7,8.6,8.1,15,16.7,14.2"></path> <path class="st23" d="M444.3,57.4c-3.8-6.4-12.9-5-15,2c-0.3-2.1,0.2-4.3,1.7-6C435.6,48.4,443.6,51,444.3,57.4z"></path> <g> <path class="st28" d="M540,89.5c0,0-7.4-6.9-15-3.6c0,0,4.1,4.3,3.9,10.8C529,96.7,535,95.8,540,89.5z"></path> <path class="st28" d="M582.9,106.4c0,0-6.1-5.8-12.4-3c0,0,3.4,3.6,3.3,9.1C573.7,112.4,578.8,111.7,582.9,106.4z"></path> <g> <path class="st23" d="M507.7,146.8c0,0,0.1,0.3,0.4,1c0,0.1,0.6,0.9,0.6,1c4.5,6.3,16,3.6,16.8-3.3c-0.4,0.2-2.5,0.8-3.1,0.8 c-1.2,0.5-4.7,0.7-5.7,0.9c-1.6-0.1-1.8,0.4-8-0.3C508.2,146.8,507.7,146.8,507.7,146.8z"></path> <path class="st18" d="M614.5,42.2c-2.3,3.7-5,7.1-8.1,10.3c-31.6,32.6-87.8,21-103.1-23.1l0,0c-12.6,26.5-45.6,32.5-66.5,14.6 l21.7-25.4c11.9-14,33-15.6,46.9-3.7c14.6-17.1,40.3-19.1,57.4-4.5c12.5,10.7,13.7,17.6,21,23.9c9.6,8.2,21.8,6.7,28.5,4.9 C614,38.8,615.5,40.7,614.5,42.2z"></path> <path class="st29" d="M515.1,121.3c1.9,12.1,12.9,20.9,25.2,19.9c1.3-0.1,1.4,1.9,0.2,2c-20.7,2.6-33-18.7-30.3-22.9 C511,118.6,514.2,118.3,515.1,121.3z"></path> <path class="st3" d="M516.8,15.3c-11.2,13.1,4,31.8,13.6,40c9.7,8.2,29.8,17.7,45.4,14.3c11.3-2.6,21.9-8.2,30.5-17.1 c3.2-3.2,5.9-6.7,8.1-10.3c0.9-1.6-0.5-3.4-2.2-3c-6.7,1.7-19,3.3-28.5-4.9c-7.5-6.4-8.5-13.2-21-23.9c-3.4-2.9-7.1-5.2-11-6.8 C538.8,2.3,527.3,3,516.8,15.3z"></path> <path class="st7" d="M505.4,14.9c11.7-13.7,30.5-17.7,46.3-11.2c-13-1.5-24.3-0.6-34.8,11.7c-2.1,2.5-3.3,5.2-3.7,8 c12.1-14,28-8.9,28-8.9c-5.4-0.6-12,3.3-17.1,8.3c-6.8,6.8-7.3,17.7-1.1,25c15.4,18,39.1,24.9,52.9,21.9 c-31.4,7.1-62.2-10.4-72.6-40.2c-12.6,26.5-45.6,32.5-66.6,14.5l21.7-25.4C470.4,4.6,491.4,2.9,505.4,14.9z"></path> <path class="st3" d="M488.1,19.5c-6.2-0.4-11.3-1.7-11.1-5.8c0.7-9.9,23.4-7.6,22.5,1.6C499.4,19.4,494.3,19.9,488.1,19.5z"></path> <path class="st30" d="M569.5,121.8c6.4,2.4,18.7,6.3,26.3,5.6c6.1-4.8,11.1-11.9,13.8-16.1c-6.7-3.7-22.1-11.4-37.9-15 C570.6,101.5,569.1,111.2,569.5,121.8z"></path> <path class="st30" d="M501.8,94.4c4.4,2.3,16.1,8.2,33.3,14.3c5.3-5.2,14.8-14.9,19.8-20.7c-7.7-4.4-25.9-14.3-47.6-19.9 C505.4,73.2,501.9,84,501.8,94.4z"></path> <path class="st31" d="M529.8,75.6l11.7,26.7c1.8-1.8,3.7-3.8,5.6-5.8l-7.3-16.6C536.7,78.6,533.3,77,529.8,75.6z"></path> <polygon class="st7" points="597,95.4 584.6,76.5 574.9,84.7 592.5,99 "></polygon> <polygon class="st7" points="525,67.5 551.7,73.1 553.1,57.7 525.8,60.6 "></polygon> <path class="st32" d="M403.7,56.5c-3.2,4.1,3,9.1,6.3,4.9c7.3-9.7,21.7-17.2,32.2-13c8.9,3.6,44.2,19.2,55.2,24.1 c-3.2,10.7-3.9,18.9-3.6,26.8c13.5,7.8,28.4,13.5,43.3,18.7c5.3-5.3,22.4-22.2,26.9-28.6c0.1-0.1,0.2,0.1,0.4,0.2 c0.2,0.3,0.1,0.8,0.1,1.1c-3.3,13.2-3.5,25.5-2.9,36.7c10,4.1,26.7,10,37.3,7.6c6.9-5.5,13.6-11.9,21.6-26.7 c-14.2-8.7-31.9-16.7-48-20.2c-1.1-5.3-6.7-8.3-11.8-6.2c-16.1-9.8-35.5-18.1-58.1-23.3c-0.7,1.4-1.6,3.4-2.6,5.9 c-11.8-5.2-45.8-20.2-54.7-23.9C432.6,35.6,414.3,42.4,403.7,56.5z M573.7,96.9c15.9,3.7,29.2,10.9,36,14.5 c-2.7,4.1-7.8,11.3-13.8,16.1c-7.7,0.7-17.9-2.7-24.3-5.1C571.1,111.8,572.6,102,573.7,96.9z M564.1,89.3L564.1,89.3 C571.7,95.8,556.5,82.8,564.1,89.3z M509.3,68.6c21.6,5.6,38,15,45.6,19.4c-5,5.9-14.5,15.5-19.8,20.7 c-17.2-6-26.9-11.4-31.4-13.8C503.8,84.5,507.4,73.7,509.3,68.6z"></path> <path class="st33" d="M502.6,58.7l3.2,0.7c-8.7,12.5-10,40.8-10,40.8l-1.9-1.1C493.2,85.1,496.7,71.5,502.6,58.7z"></path> <path class="st33" d="M565.4,99c-0.4,2.7-2.8,23.4-1.3,29.3l-2.3-1c-0.5-11.2-0.4-23.4,2.9-36.7c0-0.4,0.1-0.9-0.1-1.1 C567.6,91.3,565.8,96.4,565.4,99z"></path> <g> <path class="st33" d="M442.3,48.2c-10.6-4.3-24.9,3.3-32.2,13c-3.3,4.2-9.6-0.8-6.3-4.9c10.4-13.7,28.3-20.5,41-15.8 c-3.3-0.9-5.8,2.3-2.3,3.7l56.2,24.4l-1.3,3.6C486.4,67.5,451.2,51.9,442.3,48.2z"></path> <polygon class="st33" points="498.6,68.7 498.6,68.7 500.1,64.7 "></polygon> </g> <polyline class="st34" points="556.5,99 570.6,109.8 551.7,117.7 "></polyline> </g> </g> </g> <g> <path class="st35" d="M434.1,242.3c14.5-3.1,28.5-0.7,40.4,6.5c3.2,2,6.4,4.4,9.4,7.1c54.6,50.6-32.7,153.3-92.3,99.8 c-12.5-11.5-18.8-26.2-18.3-42.8C374.6,279.6,403.3,248.8,434.1,242.3z"></path> <path class="st1" d="M490.5,246.4c-71-65.1-175.4,56-108.9,117.7c3.6,3.3,7.4,6.2,11.4,8.6c1.4,0.9,2.9,1.6,4.3,2.4l0,0 c6.8,3.5,13.9,5.7,21.3,6.6l0,0C485.3,390.5,547.4,298.9,490.5,246.4z M438.5,366.6c-14.5,3.1-28.5,0.7-40.4-6.5 c-3.2-2-6.4-4.4-9.4-7.1c-54.6-50.6,32.7-153.3,92.3-99.8c12.5,11.5,18.8,26.2,18.3,42.8C498.1,329.3,469.3,360.1,438.5,366.6z"></path> <path class="st36" d="M431.8,239.6c14.5-3.1,28.5-0.7,40.4,6.5c3.2,2,6.4,4.4,9.4,7.1c2.2,2,4.2,4.2,6,6.5 c-1.2-1.2-2.4-2.5-3.7-3.8c-2.9-2.7-6.1-5.2-9.4-7.1c-11.9-7.2-25.9-9.6-40.4-6.5c-30.8,6.5-59.5,37.3-60.8,70.6 c-0.4,13.3,3.7,25.6,11.8,35.8c-9.6-10.8-14.6-24-14.1-38.5C372.3,276.9,401,246.1,431.8,239.6z"></path> </g> <g id="Group-18_2_" transform="translate(182.157 76.416)"> <path id="Shape-72_2_" class="st1" d="M304.7,225.1L304.7,225.1l-5.3-8.7l-0.9-0.5l-15.6-1.7l14-28.9c0.6-1,0.5-1.7,0-2l0.4,0.3 l-5.3-8.7l-1.3-0.8l-2.2,0.6l-75.3,58.4c-1,0.7-1.5,2-1.4,3.2l5.3,8.7c-0.2-0.2-0.3-0.5-0.1-0.8l0,0c0.1,0.6,0.5,1.1,1,1.3 l15.3,0.2L219,276.3c-0.3,0.5-0.2,1.3,0,2l5.3,8.7l1.3,0.8l2.2-0.6l75.3-58.4C304.6,227.1,305.1,225.4,304.7,225.1z"></path> <path id="Shape-73_2_" class="st36" d="M296.1,182.8c1.2,0.1,1.7,1.1,1.1,2.1L278,223.9l25.6-0.1c1.9-0.2,1.5,2.3-0.1,4 l-75.3,58.4c-0.7,0.2-1.8,0.9-2.2,0.6c-1.2-0.1-1.7-1.1-1.1-2.1l19.1-39.1l-25.6,0.1c-1.9,0.2-1.5-2.3,0.1-4l75.3-58.4 L296.1,182.8z"></path> </g> <g> <g> <path class="st2" d="M256.4,77.7c-3.9,8.4-10.7,25,4.1,47.7c11.9,18.3,53.5-0.9,53.8,8.4c0,0,3.6,1.3,10.3,6.9 c6.6,5.5,21.8-1.4,34.4-15.8s17.5-30.6,10.9-36.2C346.3,52.3,285.1,45.5,256.4,77.7z"></path> <path class="st37" d="M303.8,98.4c20.5,0.6,43.3,28.5,47.6,34c-10.6,9-21.6,12.7-26.8,8.3c-6.6-5.5-10.3-6.9-10.3-6.9 c-0.2-5.4-13.6-1.4-27.4-0.5c-0.6-0.6-1.2-1.3-1.7-1.9C265.2,108.7,303.8,98.4,303.8,98.4z"></path> <path class="st37" d="M256.4,77.7c-7.3,15.7-7.3,30.2,4.6,48.5c-2.7-23.4-3.7-46.8,11.8-56.8c14.3-9.3,22.3-10.7,24.3-12 C281.2,59.4,267,65.8,256.4,77.7z"></path> </g> <path class="st3" d="M317.8,121.6c-11.7,7.6-17.1,22.2-14.9,53.7c1.3,18.9,16,33.7-0.8,53.7c-7.2,8.6-2.6,20.2-11.3,25.8 c-4.1,2.7-9.9,1.2-13.9-2.3l0,0c-10.2,6.6-21.1,2.4-25.1-7.6c-4.6-0.2-9.2-2.5-12.7-8c-2.1-3.3-3.1-7-3.5-10.9 c-2.7-1.4-5.3-3.4-7.6-7c-13-20,14.5-44.3,8.6-65.6c-6.3-22.6-4.1-48.9,7.2-72.3C281.5,56.7,315.7,99.3,317.8,121.6z"></path> <path class="st10" d="M237.3,233.1c0.5,1.3,1.1,2.6,1.9,3.8c3.5,5.4,8.1,7.7,12.7,8c-4.3-10-1-23.1,2.9-29.5 c-7.3,4.7-9.2,12.7-10.2,16.4C243.7,234.9,239.7,239,237.3,233.1z"></path> <path class="st10" d="M225.4,212.8c0.6,2.1,1.5,4.2,2.8,6.2c2.3,3.5,4.9,5.7,7.6,7c-0.7-8.2,1.9-16.7,4.8-21.5 c0,0-3.3,2.1-7.7,9.5C230.4,218.2,226.3,214.6,225.4,212.8z"></path> <path class="st10" d="M281.4,225.8c-1.3,3.7-6,14.6-8.6,17.5l0,0c-0.2,0.2-0.3,0.4-0.6,0.6c0.9,3.6,2.6,6.4,4.9,8.4l0,0 c7.2,6.2,16,4.5,18.9-4.5C291.6,257.6,275.7,242.3,281.4,225.8z"></path> <path class="st10" d="M250.9,242.3l-1.1,2.3c0.7,0.1,1.3,0.2,2.1,0.2c4.3,10.3,15.2,14.1,25.2,7.6c-0.5-0.8-3.5-2.8-4.9-8.4 C266.5,250.1,254.8,251.6,250.9,242.3z"></path> <g> <path class="st7" d="M274.5,240.8C274.6,240.9,274.5,240.8,274.5,240.8c4.4-7,5.7-16.9,12.3-22.1c-5.9,4.9-7,14.6-10.2,21.9 c-2.3,5.2-0.6,10.4,1.6,12.8c-2.6-1.9-5.1-5.3-6.1-9.4l0,0C272.5,243.7,273.8,242.1,274.5,240.8z"></path> <path class="st18" d="M286.9,218.7c0.4-0.4,0.8-0.6,1.2-0.9C287.6,218.1,287.3,218.4,286.9,218.7z"></path> </g> <g class="st38"> <path class="st39" d="M243.2,116.4c-1.1,19.9-1.1,33.5-7.1,53.4c1.5-5.5,2.1-11,0.6-16.3c-6.3-22.6-4.1-48.9,7.2-72.3 c3.7-2.4,7.2-4.1,10.9-5.3C250.4,78.4,244.4,95.8,243.2,116.4z"></path> <path class="st18" d="M235.9,170.1L235.9,170.1C236.1,169.6,236,170.1,235.9,170.1z"></path> </g> <path class="st40" d="M307.6,195.3c3,11.9-2.5,21.4-10,10.2c-2.4-3.7-0.6-12.1-3.8-27.3c-6.4-30.4-25.6-73.7-11.4-101.1 c19.8,8.2,33.9,30.5,35.2,44.6C298.4,134.3,302.2,173.7,307.6,195.3z"></path> </g> </g> </svg> 