<svg viewBox="137.76522 0 40.05675 41.06666666666666" transform="matrix(1, 0, 0, 1, 0, 0)" fill="none" xmlns="http://www.w3.org/2000/svg" style="max-height: 500px" width="40.05675" height="41.06666666666666"><g clip-path="url(#clip0_1513_7814)"><path fill="#395cf4" d="M67.8423 21.641C67.8423 17.9311 70.7415 14.9346 74.4487 14.9346C78.1559 14.9346 81.0552 17.8835 81.0552 21.641C81.0552 25.3033 78.1559 28.2998 74.4487 28.2998C70.7415 28.2998 67.8423 25.3033 67.8423 21.641ZM70.5989 21.593C70.5989 23.7809 72.3099 25.5408 74.4487 25.5408C76.5875 25.5408 78.2985 23.7809 78.2985 21.593C78.2985 19.4051 76.5875 17.6453 74.4487 17.6453C72.2624 17.6453 70.5989 19.4051 70.5989 21.593Z" clip-rule="evenodd" fill-rule="evenodd"/><path fill="#395cf4" d="M85.0474 21.641C85.0474 17.9311 87.9466 14.9346 91.6538 14.9346C95.361 14.9346 98.2603 17.8835 98.2603 21.641C98.2603 25.3033 95.361 28.2998 91.6538 28.2998C87.9466 28.2998 85.0474 25.3033 85.0474 21.641ZM87.8041 21.593C87.8041 23.7809 89.5151 25.5408 91.6539 25.5408C93.8402 25.5408 95.5037 23.7809 95.5037 21.593C95.5037 19.4051 93.7927 17.6453 91.6539 17.6453C89.4676 17.6453 87.8041 19.4051 87.8041 21.593Z" clip-rule="evenodd" fill-rule="evenodd"/><path fill="#395cf4" d="M7.24352 21.1177C8.57431 20.5945 9.00207 19.5481 9.00207 18.692C9.00207 16.4565 7.48116 15.0771 5.15227 15.0771H0.25685C0.114265 15.0771 -0.0283203 15.2198 -0.0283203 15.3625V27.7765C-0.0283203 27.9192 0.114265 28.0619 0.25685 28.0619H5.5325C8.09903 28.0619 9.66747 26.2545 9.66747 24.0666C9.715 23.0202 8.95454 21.5457 7.24352 21.1177ZM2.72833 17.4554H4.86711C5.67509 17.4554 6.10284 18.0261 6.10284 18.8347C6.10284 19.5957 5.62756 20.1665 4.91463 20.1665H2.72833V17.4554ZM2.72833 25.6363H5.38992C6.34048 25.6363 6.81577 24.7801 6.81577 24.0191C6.81577 23.3057 6.34048 22.4971 5.34239 22.4971H2.72833V25.6363Z" clip-rule="evenodd" fill-rule="evenodd"/><path fill="#395cf4" d="M16.9391 15.0298H14.8003C14.6577 15.0298 14.5151 15.1725 14.5151 15.3152V27.7292C14.5151 27.8718 14.6577 28.0145 14.8003 28.0145H16.9391C17.1292 28.0145 17.2243 27.8718 17.2243 27.7292V15.3152C17.2243 15.1725 17.0817 15.0298 16.9391 15.0298Z"/><path fill="#395cf4" d="M34.7151 21.2128H28.6315C28.4889 21.2128 28.3463 21.3555 28.3463 21.4982V23.1629C28.3463 23.3056 28.4889 23.4483 28.6315 23.4483H31.8159C31.8159 24.8276 30.0574 25.6838 28.679 25.6838C26.4927 25.6838 24.7817 23.7812 24.7817 21.5458C24.7817 19.2627 26.4927 17.4553 28.679 17.4553C29.7247 17.4553 30.6277 17.8834 31.3406 18.5493C31.4357 18.6444 31.6258 18.692 31.7209 18.5493L33.3368 17.17C33.4794 17.0748 33.4794 16.8846 33.3368 16.7419C32.1961 15.5528 30.5326 14.8394 28.6315 14.8394C24.8768 14.8394 21.9775 17.8358 21.9775 21.4982C21.9775 25.1606 24.8768 28.157 28.6315 28.157C32.2912 28.157 34.8577 26.1118 34.9528 21.4506C35.0003 21.3555 34.8577 21.2128 34.7151 21.2128Z"/><path fill="#395cf4" d="M44.6482 20.4992L43.0797 20.0235C41.7965 19.643 41.7014 19.0247 41.7014 18.6918C41.7014 17.9308 42.4143 17.4076 43.3649 17.4076C44.363 17.4076 44.9333 17.8832 45.0284 18.6442C45.0284 18.7869 45.171 18.882 45.3136 18.882H47.4999C47.69 18.882 47.785 18.7393 47.785 18.5491C47.6425 16.2661 45.7889 14.8867 43.4124 14.8867C40.941 14.8867 38.9448 16.4563 38.9448 18.7869C38.9448 19.976 39.42 21.6407 42.3193 22.5444L43.8877 22.9725C45.2185 23.353 45.4562 23.8762 45.4562 24.4469C45.4562 25.3031 44.6482 25.8263 43.555 25.8263C42.4143 25.8263 41.7965 25.2079 41.6539 24.4945C41.5588 24.3518 41.4638 24.2567 41.3212 24.2567H39.0874C38.8972 24.2567 38.7547 24.3994 38.8022 24.542C38.9448 26.73 40.7984 28.252 43.5075 28.252C45.7889 28.252 48.1653 27.0153 48.2128 24.4469C48.2128 23.2103 47.785 21.4029 44.6482 20.4992Z"/><path fill="#395cf4" d="M63.9449 25.2081L62.1864 23.9715C62.0438 23.8764 61.9012 23.9239 61.8061 24.0666C61.0932 25.0179 60.0001 25.6362 58.7168 25.6362C56.5305 25.6362 54.962 23.8288 54.962 21.5933C54.962 19.3103 56.5305 17.5029 58.7168 17.5029C59.9525 17.5029 60.9982 18.0737 61.7111 18.9774C61.8061 19.12 61.9962 19.12 62.1388 19.0249L63.8974 17.7883C64.04 17.6931 64.0875 17.5029 63.9924 17.3602C62.8518 15.8382 60.9506 14.8394 58.7643 14.8394C55.0571 14.8394 52.2529 17.8358 52.2529 21.4982C52.2529 25.1606 55.0571 28.157 58.7643 28.157C60.9982 28.157 62.8993 27.1107 64.0875 25.5411C64.135 25.4935 64.0875 25.3033 63.9449 25.2081Z"/><path fill="#395cf4" d="M111.283 15.0298H102.063C101.92 15.0298 101.777 15.1725 101.777 15.3152V17.2177C101.777 17.3604 101.92 17.5031 102.063 17.5031H105.294V27.7292C105.294 27.8718 105.437 28.0145 105.58 28.0145H107.766C107.909 28.0145 108.051 27.8718 108.051 27.7292V17.5506H111.283C111.426 17.5506 111.568 17.4079 111.568 17.2653V15.3627C111.568 15.1725 111.426 15.0298 111.283 15.0298Z"/><path fill="#395cf4" d="M121.216 20.4992L119.648 20.0235C118.365 19.643 118.27 19.0247 118.27 18.6918C118.27 17.9308 118.983 17.4076 119.933 17.4076C120.931 17.4076 121.502 17.8832 121.597 18.6442C121.597 18.7869 121.739 18.882 121.882 18.882H124.068C124.211 18.882 124.401 18.7393 124.353 18.5491C124.211 16.2661 122.357 14.8867 119.981 14.8867C117.509 14.8867 115.513 16.4563 115.513 18.7869C115.513 19.976 115.988 21.6407 118.888 22.5444L120.456 22.9725C121.787 23.353 122.024 23.8762 122.024 24.4469C122.024 25.3031 121.216 25.8263 120.123 25.8263C118.983 25.8263 118.365 25.2079 118.222 24.4945C118.175 24.3518 118.08 24.2567 117.937 24.2567H115.703C115.513 24.2567 115.418 24.3994 115.418 24.542C115.561 26.73 117.414 28.252 120.123 28.252C122.405 28.252 124.781 27.0153 124.781 24.4469C124.829 23.2103 124.401 21.4029 121.216 20.4992Z"/><path fill="#395cf4" d="M151.017 17.218C152.585 17.5985 153.441 19.4059 153.013 21.3085C152.538 23.211 150.922 24.4476 149.401 24.0671C147.832 23.6866 146.977 21.8317 147.405 19.9291C147.88 18.0742 149.496 16.8375 151.017 17.218Z"/><path fill="#395cf4" d="M151.967 31.772L152.27 31.873C152.169 31.8225 152.068 31.8225 151.967 31.772Z"/><path fill="#395cf4" d="M138.089 15.791C139.277 6.80154 145.218 0 156.483 0C165.323 0 170.836 4.18556 173.593 10.3212C173.531 10.2892 173.469 10.2566 173.406 10.2237C172.255 9.6213 170.866 8.89432 168.792 8.89432C165.492 8.89432 163.691 12.6261 162.947 14.169C162.931 14.2035 162.914 14.2368 162.899 14.269C162.281 15.6007 160.237 16.4569 157.718 16.4569C157.243 16.4569 156.72 16.4569 156.197 16.3617C152.68 15.8861 150.019 13.936 150.256 11.9859C150.266 11.9493 150.275 11.9109 150.284 11.8711C150.324 11.7041 150.37 11.5121 150.447 11.32C148.45 13.5555 146.787 16.219 145.931 18.835C146.121 16.8849 146.739 14.8397 147.69 12.9848C145.504 12.9848 143.793 14.7446 143.793 16.8849C143.793 18.2643 144.505 19.4533 145.551 20.1668C145.409 20.9278 145.313 21.6413 145.313 22.3547C145.313 26.7305 148.118 30.4404 152.062 31.7722C150.684 31.6771 149.401 31.2966 148.26 30.7258C148.498 33.0089 149.068 35.3394 149.639 35.4346C150.161 35.5297 151.35 33.7699 152.348 31.8673C153.251 32.1527 154.201 32.2954 155.199 32.2954H155.817C156.625 34.5309 159.952 40.0482 160.855 39.9531C160.332 40.1433 159.097 39.7628 157.623 38.6689H156.53C146.216 38.6689 140.371 32.9613 138.517 25.1134C141.274 28.5379 144.078 29.3465 144.41 29.4416C141.511 28.5379 137.424 21.3559 138.089 15.791ZM161.568 10.7491H161.853V7.56238C161.853 5.56473 160.237 3.90002 158.194 3.90002C157.528 3.90002 157.124 4.11405 156.72 4.32809C156.316 4.54212 155.912 4.75616 155.247 4.75616C154.534 4.75616 153.916 4.32809 153.583 3.75733C153.488 3.56708 153.251 3.61464 153.203 3.80489C153.156 4.04271 153.156 4.28052 153.156 4.51834C153.156 6.70625 154.914 8.46609 157.1 8.46609C157.813 8.46609 158.526 8.27583 159.097 7.94289V8.27583C159.097 9.65517 160.19 10.7491 161.568 10.7491Z" clip-rule="evenodd" fill-rule="evenodd"/><path fill="#395cf4" d="M174.591 14.0786C174.924 15.7433 175.114 17.5032 175.114 19.3106C175.114 28.4903 170.741 36.1955 161.426 38.1456C161.758 35.815 161.711 31.7245 161.331 30.2977C161.331 30.2501 161.283 30.2025 161.283 30.155C162.234 29.4415 163.042 28.4903 163.66 27.4914C163.042 27.5866 162.424 27.6341 161.806 27.6341C159.287 27.6341 157.053 26.8255 155.532 25.5413C156.768 26.1121 158.194 26.3975 159.715 26.3975C161.568 26.3975 163.279 25.9218 164.658 25.1608C166.606 24.0669 167.842 22.3546 167.842 20.4045C167.842 19.5484 167.509 18.6922 166.939 18.0264C166.511 17.5032 165.988 17.0751 165.323 16.7421C166.084 16.98 166.749 17.2653 167.319 17.6458C168.175 16.6946 168.412 15.4104 169.315 14.364C171.787 11.6529 177.871 14.364 177.015 9.60767C177.871 12.2236 176.54 13.5078 174.591 14.0786Z"/><path fill="#415AFF" d="M151.967 31.772C152.068 31.8225 152.169 31.8225 152.27 31.873L151.967 31.772Z"/><path fill="#415AFF" d="M152.27 31.873C152.169 31.8225 152.068 31.8225 151.967 31.772L152.27 31.873Z"/></g><defs fill="#d10000"><clipPath fill="#d10000" id="clip0_1513_7814"><rect fill="#395cf4" height="40" width="178"/></clipPath></defs></svg>